# xmcd CD database file
#
# Track frame offsets:
#	187
#	13612
#	17632
#	33775
#	36940
#	52702
#	68252
#	74740
#	91435
#	100007
#	116432
#	125792
#	140642
#	157197
#	172167
#	173827
#	186285
#	198277
#	219502
#	231717
#	244027
#	256452
#	264487
#	272232
#	281892
#	289735
#
# Disc length: 4130 seconds
#
# Revision: 0
# Processed by: cddbd v1.5.1PL2 Copyright (c) Steve Scherf et al.
# Submitted via: CDex 1.50beta9
#
DISCID=8b10201a
DTITLE=Duke Ellington - Duke Ellington and His Orchestra, Vol. 2: 1943
DYEAR=1943
DGENRE=Jazz
TTITLE0=Main Stem [Take 3]
TTITLE1=Slip of the Lip (Can Sink a Ship) [Incomplete Take][#]
TTITLE2=Take Two
TTITLE3=Three Cent Stomp [False Start][#]
TTITLE4=Take Two [#]
TTITLE5=Take Three
TTITLE6=I Wonder Why [Incomplete Take][#]
TTITLE7=Take Two [#]
TTITLE8=Take Three [Incomplete Take][#]
TTITLE9=Take Four
TTITLE10=Go Away Blues
TTITLE11=I Don't Want Anybody at All
TTITLE12=Ain't Misbehavin'
TTITLE13=Things Ain't What They Used to Be
TTITLE14=Baby, Please Stop and Think About Me [False Start][#]
TTITLE15=Take Two [#]
TTITLE16=Take Three
TTITLE17=Caravan
TTITLE18=It Don't Mean a Thing (If It Ain't Got That Swing) [#]
TTITLE19=Take Two [#]
TTITLE20=Take Three
TTITLE21=Johnny Come Lately
TTITLE22=Take Two [#]
TTITLE23=Creole Love Call [Incomplete Take]
TTITLE24=Take Two [Incomplete Take]
TTITLE25=Take Three
EXTD=YEAR: 1943
EXTT0=
EXTT1=
EXTT2=
EXTT3=
EXTT4=
EXTT5=
EXTT6=
EXTT7=
EXTT8=
EXTT9=
EXTT10=
EXTT11=
EXTT12=
EXTT13=
EXTT14=
EXTT15=
EXTT16=
EXTT17=
EXTT18=
EXTT19=
EXTT20=
EXTT21=
EXTT22=
EXTT23=
EXTT24=
EXTT25=
PLAYORDER=
